<svg xmlns="http://www.w3.org/2000/svg" viewBox="0 0 64 64"><circle cx="32" cy="32" r="32" fill="#fe4439"/><path fill="#fff" d="M21.605 23.951V18l-.84.015c-2.835.069-5.35 1.003-7.141 2.662-1.428 1.337-2.27 3.183-2.289 5.022.002 1.551.494 3.195 1.298 4.321 1.287 1.785 4.52 3.341 9.597 4.651 1.79.448 3.272 1.065 3.86 1.596.465.404.482.451.482 1.086 0 .552-.053.735-.346 1.089-.646.807-1.959 1.312-3.685 1.438l-1.07.076-.115.01V46l1.479-.099c4.416-.304 7.73-1.875 9.621-4.564 1.052-1.531 1.473-3.883 1.034-5.839-.778-3.386-3.551-5.427-10.05-7.396-2.152-.644-3.411-1.068-4.133-1.446-.701-.37-.858-.654-.858-1.11 0-.346.157-.606.512-.843.362-.247.899-.431 1.637-.563l.907-.167.1-.022Zm1.626-5.882a4.367 4.367 0 0 0-.71-.019.872.872 0 0 0-.235.046.35.35 0 0 0-.167.137c-.044.127-.063 1.433-.049 2.917l.041 2.693v.091l1.027.255c1.318.331 2.334.819 3.073 1.502l.646.595.078.072 2.571-1.933 2.471-1.871.098-.073-.642-.735c-1.307-1.459-3.619-2.727-5.997-3.288a17.257 17.257 0 0 0-2.205-.389ZM54 24.553V18.13H34.807v6.423H54ZM41.989 45.76V25.03l-3.459-.041c-1.298-.013-2.139-.013-2.659.007-.261.008-.45.023-.573.046-.135.025-.232.087-.276.156-.044.246-.063 4.756-.05 10.325l.041 10.121.001.116h6.975Zm11.187-9.863v-6.421H42.494v6.421h10.682Zm-37.402 2.195-.509-.439-.079-.067-2.251 1.674c-1.195.888-2.32 1.725-2.498 1.854l-.333.262-.104.079.629.609c2.108 2.021 5.438 3.393 9.299 3.824l.715.075.139.018v-6.033l-.613-.094a11.547 11.547 0 0 1-2.957-.905c-.516-.243-1.174-.619-1.438-.857Z"/></svg>